<mxfile host="app.diagrams.net" modified="2023-07-16T17:11:37.042Z" agent="Mozilla/5.0 (Windows NT 10.0; Win64; x64) AppleWebKit/537.36 (KHTML, like Gecko) Chrome/112.0.0.0 YaBrowser/23.5.4.674 Yowser/2.5 Safari/537.36" version="21.6.2" etag="l6s0Go9BcYGYO1E-exwv" type="github">
  <diagram name="Страница 1" id="r0C0xwYn9Y392fHN7RyO">
    <mxGraphModel>
      <root>
        <mxCell id="0" />
        <mxCell id="1" parent="0" />
      </root>
    </mxGraphModel>
  </diagram>
</mxfile>
